<?xml version="1.0" encoding="UTF-8" standalone="no"?>
<!DOCTYPE svg PUBLIC "-//W3C//DTD SVG 1.1//EN" "http://www.w3.org/Graphics/SVG/1.1/DTD/svg11.dtd">
<svg width="1000px" height="750px" version="1.1" xmlns="http://www.w3.org/2000/svg" xmlns:xlink="http://www.w3.org/1999/xlink" xml:space="preserve" xmlns:serif="http://www.serif.com/" style="fill-rule:evenodd;clip-rule:evenodd;stroke-linejoin:round;stroke-miterlimit:2;">
    <g id="With-long-shadow" serif:id="With long shadow" transform="matrix(0.669969,0,0,0.669969,-106.132,-92.7991)">
        <g transform="matrix(1,0,0,1,998.343,1241.45)">
            <g id="shade">
                <path d="M0,-196.457C25.309,-193.257 32.7,-178.386 46.049,-163.622C60.867,-147.232 75.218,-130.606 88.899,-113.68C105.089,-93.65 120.689,-73.221 134.016,-52.04C141.809,-39.654 210.104,9.863 203.918,14.546L311.734,14.546C304.771,10.965 296.499,6.01 291.175,2.288C273.33,-10.34 268.739,-19.684 261.348,-35.396C251.165,-57.038 224.688,-75.591 208.078,-94.724C182.906,-123.719 160.393,-150.52 128.49,-184.007C110.896,-202.475 116.124,-205.842 82.835,-205.842C78.616,-205.85 114.649,-165.502 123.018,-153.793C138.462,-132.184 152.854,-110.148 166.275,-87.806C169.368,-82.657 171.813,-75.14 176.434,-70.41C135.099,-112.728 94.011,-157.905 47.896,-196.168C42.691,-200.487 41.377,-206.601 31.988,-204.833C33.281,-202.865 34.564,-200.894 35.837,-198.919C16.753,-198.919 -5.783,-211.003 -24.111,-201.942C-19.639,-197.363 -6.29,-197.253 0,-196.457" style="fill:rgb(0,113,188);"/>
            </g>
        </g>
        <g id="Jules">
            <g transform="matrix(1,0,0,1,991.788,1024.36)">
                <path d="M0,2.322C8.169,0.179 12.384,-7.188 13.897,-9.076C17.74,-13.868 18.052,-15.225 18.052,-15.225L48.787,-15.225C50.266,-8.761 47.328,-0.699 47.328,5.695C47.328,13.544 47.672,17.547 47.672,17.547L40.169,17.547C40.169,17.547 38.723,9.343 38.241,6.797C30.279,6.797 23.238,9.075 18.898,12.912C15.521,15.897 11.182,17.547 6.674,17.547L-5.889,17.547C-11.772,17.547 -18.754,12.293 -18.754,12.293C-18.754,6.896 -16.065,6.536 0,2.322" style="fill-rule:nonzero;"/>
            </g>
            <g transform="matrix(1,0,0,1,1040.05,1041.52)">
                <path d="M0,-27.114L0.708,-24.562C0.206,-20.076 -0.933,-15.448 -0.933,-11.466C-0.933,-5.014 -0.7,-1.167 -0.617,0C-0.617,0 -2.507,-13.152 -2.326,-17.413C-2.145,-21.675 0,-27.114 0,-27.114" style="fill-rule:nonzero;"/>
            </g>
            <g transform="matrix(1,0,0,1,1116.11,1017.99)">
                <path d="M0,14.105C-0.705,7.985 -2.399,-1.873 -3.508,-6.354C-3.862,-7.787 -4.921,-8.815 -6.177,-8.956L-28.024,-11.413C-30.1,-11.647 -31.93,-9.381 -31.337,-7.018C-31.305,-6.889 -31.266,-6.778 -31.219,-6.685C-30.658,-5.58 -32.527,-0.493 -34.023,6.364C-34.978,10.742 -35.351,12.077 -35.88,16.594C-36.402,21.052 -34.065,24.342 -31.836,25.736C-26.14,25.724 -24.543,19.595 -17.414,19.595C-11.309,19.595 -11.565,24.37 -6.083,25.752C-3.016,24.474 0.83,21.322 0,14.105" style="fill-rule:nonzero;"/>
            </g>
            <g transform="matrix(1,0,0,1,987.548,487.16)">
                <path d="M0,0.11C-0.029,0.045 -0.047,0.008 -0.048,0.006L-0.042,0C-0.024,0.046 -0.011,0.083 0,0.11" style="fill:rgb(1,1,1);"/>
            </g>
            <g transform="matrix(1,0,0,1,1113.1,1026.9)">
                <path d="M0,7.588C1.217,3.059 0.765,-9.112 0.759,-9.254C1.638,-4.564 2.541,1.135 3.009,5.195C3.73,11.467 0.92,14.667 -1.841,16.236L-3.073,16.842L-3.074,16.842C-3.074,16.842 -1.224,12.144 0,7.588" style="fill:rgb(0,255,255);fill-rule:nonzero;"/>
            </g>
            <g transform="matrix(1,0,0,1,1110.03,1033.01)">
                <path d="M0,10.732L-26.24,10.732C-20.545,10.712 -18.46,0 -11.331,0C-5.226,0 -5.481,8.322 0,10.732" style="fill:rgb(46,49,146);fill-rule:nonzero;"/>
            </g>
            <g transform="matrix(0.210067,0.977687,0.977687,-0.210067,1105.21,1029.77)">
                <path d="M-3.145,-10.871L11.955,-10.871L12.899,-6.477L-0.979,-0.791L-3.145,-10.871Z" style="fill-rule:nonzero;"/>
            </g>
            <g transform="matrix(10.1281,-36.5031,36.5031,10.1281,1221.3,667.182)">
                <path d="M0.511,-1.057C0.408,-1.076 0.265,-0.942 0.154,-0.895C0.044,-0.849 -0.083,-0.901 -0.19,-0.857C-0.297,-0.812 -0.332,-0.713 -0.332,-0.713C-0.332,-0.713 -0.444,-0.681 -0.542,-0.597C-0.719,-0.446 -0.502,-0.091 -0.502,-0.091L-0.518,0.003C-0.518,0.003 -0.531,0.015 -0.573,0.051C-0.632,0.101 -0.588,0.158 -0.588,0.158L-0.427,0.125L-0.373,0.051L-0.369,-0.04L-0.33,0.108C-0.33,0.108 -0.32,0.167 -0.322,0.221C-0.324,0.321 -0.211,0.368 -0.174,0.351C-0.103,0.319 -0.148,0.152 -0.148,0.152L-0.148,0.127L-0.151,-0.019L-0.06,0.35C-0.06,0.35 0.015,0.503 0.08,0.622C0.172,0.788 0.344,0.685 0.276,0.564C0.177,0.39 0.119,0.238 0.119,0.238C0.119,0.238 0.026,-0.047 0.063,-0.068C0.099,-0.09 0.255,0.168 0.255,0.168C0.255,0.168 0.319,0.233 0.378,0.325C0.506,0.525 0.593,0.354 0.538,0.275C0.483,0.196 0.379,0.047 0.379,0.047C0.379,0.047 0.297,-0.063 0.253,-0.174C0.227,-0.237 0.119,-0.414 0.251,-0.669C0.259,-0.685 0.296,-0.714 0.377,-0.775C0.441,-0.823 0.539,-0.874 0.572,-0.897C0.606,-0.923 0.617,-0.955 0.609,-0.985C0.6,-1.018 0.566,-1.048 0.511,-1.057Z" style="fill:url(#_Radial1);fill-rule:nonzero;"/>
            </g>
            <g transform="matrix(1,0,0,1,1114.88,994.241)">
                <path d="M0,-415.738C-14.184,-427.163 -39.993,-426.245 -44.244,-442.551C-55.851,-441.169 -65.38,-439.721 -73.573,-441.856C-79.386,-443.372 -81.892,-443.83 -86.15,-444.316C-90.65,-426.62 -109.742,-430.331 -115.896,-421.379C-115.896,-421.379 -133.189,-367.475 -133.038,-367.386C-133.387,-361.168 -131.187,-355.337 -124.169,-350.281C-124.086,-350.378 -117.493,-329.664 -126.876,-293.103C-127.127,-292.125 -133.971,-248.977 -133.98,-248.717C-133.98,-248.717 -110.766,-152.094 -107.862,16.302C-97.303,20.711 -85.95,27.571 -71.338,23.161C-71.638,-78.873 -69.774,-196.687 -69.774,-196.687C-69.774,-196.687 -43.16,-81.802 -33.57,22.946C-5.697,28.578 2.789,21.604 2.789,21.604C2.789,21.604 -12.582,-123.181 -14.38,-152.489C-16.179,-181.797 -14.979,-230.1 -15.579,-243.669C-15.979,-252.713 -20.104,-263.919 -22.812,-270.392C-24.881,-276.697 -29.923,-291.034 -29.923,-291.852C-29.923,-306.866 -28.425,-318.914 -26.042,-328.837L-26.004,-328.504C-26.004,-328.504 -25.524,-330.764 -24.587,-334.276C-21.668,-344.174 -15.991,-354.337 -11.033,-362.008C-6.129,-369.596 6.917,-339.619 10.248,-336.906L37.914,-336.739C29.748,-371.406 18.685,-401.665 0,-415.738" style="fill:rgb(0,255,255);fill-rule:nonzero;"/>
            </g>
            <g transform="matrix(1,0,0,1,1197.92,917.066)">
                <path d="M0,-258.444C-17.043,-259.279 -40.315,-263.38 -41.063,-262.92C-41.812,-262.46 -40.848,-263.869 -41.989,-266.581C-43.131,-269.294 -46.256,-267.546 -46.256,-267.546C-46.256,-267.546 -49.531,-274.461 -49.068,-275.829L-49.652,-275.497C-57.988,-300.383 -69.69,-316.55 -79.928,-339.227C-93.846,-350.438 -121.943,-349.137 -127.007,-364.493C-132.845,-363.821 -138.118,-363.373 -142.942,-363.728C-147.912,-363.438 -152.439,-363.593 -156.616,-364.681C-158.723,-365.23 -160.392,-365.639 -161.869,-365.963C-166.909,-349.621 -185.262,-352.949 -191.274,-344.204C-191.274,-344.204 -209.509,-291.28 -209.357,-291.191C-209.706,-284.972 -206.563,-278.162 -199.546,-273.106C-199.463,-273.203 -192.87,-252.489 -202.253,-215.928C-202.504,-214.95 -209.348,-171.802 -209.357,-171.543C-209.357,-171.543 -188.74,-68.96 -185.837,99.436C-161.379,107.519 -156.328,100.924 -154.381,100.336C-154.681,-1.698 -152.817,-119.512 -152.817,-119.512C-152.817,-119.512 -149.882,-106.84 -145.612,-86.089C-145.353,-106.79 -145.151,-119.512 -145.151,-119.512C-145.151,-119.512 -119.385,-1.32 -109.795,103.428C-103.748,104.65 -96.962,104.868 -92.629,105.103C-82.906,104.507 -80.254,98.779 -80.254,98.779C-80.254,98.779 -95.625,-46.007 -97.423,-75.314C-99.222,-104.622 -98.022,-152.925 -98.622,-166.494C-99.021,-175.537 -103.146,-186.744 -105.854,-193.217C-107.924,-199.522 -112.966,-213.859 -112.966,-214.677C-112.966,-229.691 -111.468,-241.739 -109.085,-251.662L-109.047,-251.329C-109.047,-251.329 -108.567,-253.589 -107.63,-257.101C-104.711,-266.999 -99.034,-277.161 -94.076,-284.833C-92.671,-287.006 -76.784,-254.179 -71.566,-246.566C-70.619,-243.672 -69.24,-241.867 -67.389,-241.465C-61.07,-240.096 -56.669,-236.837 -40.094,-234.581C-20.104,-231.861 -6.543,-234.66 2.832,-236.191C12.207,-237.722 17.044,-257.609 0,-258.444" style="fill-rule:nonzero;"/>
            </g>
            <g transform="matrix(29.1159,-24.2347,-24.2347,-29.1159,854.041,508.176)">
                <path d="M0.08,0.686C0.015,0.567 -0.06,0.413 -0.06,0.413L-0.151,0.045L-0.148,0.191L-0.148,0.216C-0.148,0.216 -0.103,0.383 -0.174,0.415C-0.211,0.432 -0.324,0.385 -0.321,0.285C-0.32,0.231 -0.33,0.172 -0.33,0.172L-0.369,0.024L-0.373,0.115L-0.427,0.189L-0.588,0.222C-0.588,0.222 -0.632,0.165 -0.573,0.115C-0.531,0.079 -0.517,0.067 -0.517,0.067L-0.502,-0.027C-0.502,-0.027 -0.719,-0.382 -0.542,-0.533C-0.444,-0.617 -0.332,-0.649 -0.332,-0.649C-0.332,-0.649 -0.297,-0.748 -0.19,-0.793C-0.083,-0.837 0.044,-0.785 0.154,-0.831C0.265,-0.878 0.408,-1.012 0.511,-0.993C0.614,-0.975 0.644,-0.887 0.572,-0.833C0.539,-0.81 0.441,-0.759 0.377,-0.711C0.296,-0.65 0.259,-0.621 0.251,-0.605C0.119,-0.35 0.227,-0.173 0.253,-0.11C0.297,0 0.379,0.111 0.379,0.111C0.379,0.111 0.483,0.26 0.538,0.339C0.593,0.418 0.506,0.589 0.378,0.389C0.319,0.297 0.255,0.232 0.255,0.232C0.255,0.232 0.099,-0.026 0.063,-0.005C0.026,0.017 0.119,0.302 0.119,0.302C0.119,0.302 0.177,0.454 0.276,0.628C0.304,0.678 0.291,0.725 0.26,0.751C0.215,0.788 0.134,0.783 0.08,0.686Z" style="fill:url(#_Radial2);fill-rule:nonzero;"/>
            </g>
            <g transform="matrix(1,0,0,1,1010.96,552.902)">
                <path d="M0,29.621L-119.243,-24.07L-144.59,-35.601C-144.59,-35.601 -150.45,-37.923 -156.249,-31.467C-162.047,-25.012 -158.85,-18.422 -158.85,-18.422L-142.958,-6.365L-20.896,67.544L0,29.621Z" style="fill-rule:nonzero;"/>
            </g>
            <g transform="matrix(-0.766411,-0.64235,-0.64235,0.766411,981.591,479.577)">
                <path d="M-16.154,-18.819C-16.154,-18.819 -5.803,-15.168 4.921,-8.162C1.721,-6.133 -6.723,2.024 -16.154,-0.401L-25.585,-2.827L-16.154,-18.819Z"/>
            </g>
            <g transform="matrix(1,0,0,1,996.974,550.23)">
                <path d="M0,-93.101L38.247,-74.305C41.74,-66.81 44.289,-58.877 45.815,-50.75C47.026,-44.3 47.519,-37.304 44.501,-31.475C40.94,-24.596 41.848,-11.472 2.645,0C-9.61,-17.889 -15.649,-43.341 -2.544,-66.699C-0.478,-74.925 -2.43,-85.739 0,-93.101" style="fill:rgb(0,255,255);"/>
            </g>
            <g transform="matrix(1,0,0,1,999.208,555.899)">
                <path d="M0,-98.003L38.124,-78.702C41.531,-70.856 43.986,-62.534 45.413,-53.997C46.544,-47.219 46.948,-39.859 43.847,-33.682C40.186,-26.392 40.927,-12.584 1.454,0C-10.609,-18.679 -16.34,-45.403 -2.893,-70.169C-0.714,-78.857 -2.533,-90.219 0,-98.003" style="fill:rgb(250,195,174);"/>
            </g>
            <g transform="matrix(1,0,0,1,1143.4,569.26)">
                <path d="M0,-117.51C-1.41,-129.981 -6.039,-136.623 -11.714,-139.112C-11.707,-139.137 -11.699,-139.161 -11.691,-139.187C-22.498,-167.986 -60.1,-173.982 -91.554,-170.708C-123.008,-167.434 -149.102,-141.061 -150.654,-110.976C-151.401,-96.521 -146.67,-81.834 -138.04,-69.551C-148.284,-37.593 -156.002,-7.759 -177.824,-3.469C-174.812,0.638 -70.684,56.472 -18.487,18.719C-49.732,-10.845 6.767,-57.668 0,-117.51" style="fill:rgb(0,255,255);"/>
            </g>
            <g transform="matrix(0.591614,0.806222,0.806222,-0.591614,1000.68,471.488)">
                <path d="M-6.824,-11.033L20.929,-11.033L21.993,-13.182L-4.26,-14.729L-6.824,-11.033Z"/>
            </g>
            <g transform="matrix(1,0,0,1,985.789,756.835)">
                <path d="M0,-16.333L-1.166,-10.166C-1.166,-10.166 22.673,0 46.5,-6.333C22.673,-6.5 0,-16.333 0,-16.333" style="fill:rgb(0,255,255);fill-rule:nonzero;"/>
            </g>
            <g transform="matrix(1,0,0,1,1119.54,654.088)">
                <path d="M0,-4.202C-4.536,-13.157 -12.807,-21.284 -15.574,-22.025L7.353,17.823C7.353,17.823 6,7.644 0,-4.202" style="fill:rgb(0,255,255);fill-rule:nonzero;"/>
            </g>
            <g transform="matrix(1,0,0,1,1112.89,668.201)">
                <path d="M0,-28.247L2.112,-18.951C2.112,-18.951 7.029,-2.335 25.279,0C8.078,-6.24 0,-28.247 0,-28.247" style="fill:rgb(0,255,255);fill-rule:nonzero;"/>
            </g>
            <g transform="matrix(1,0,0,1,1157.67,657.416)">
                <path d="M0,0.001C-1.417,4.084 41.5,3.751 41.5,3.751C41.5,3.751 1.416,-4.083 0,0.001" style="fill:rgb(0,255,255);fill-rule:nonzero;"/>
            </g>
            <g transform="matrix(1,0,0,1,900.666,540.176)">
                <path d="M0,21.918C-0.918,26.142 -42.984,-4.224 -42.984,-4.224C-42.984,-4.224 0.918,17.694 0,21.918" style="fill:rgb(0,255,255);fill-rule:nonzero;"/>
            </g>
            <g transform="matrix(1,0,0,1,935.574,638.98)">
                <path d="M0,-58.5C5.843,-60.104 53.14,-33.219 69.593,1.604C52.331,-27.886 -4.167,-57.354 0,-58.5" style="fill:rgb(0,255,255);fill-rule:nonzero;"/>
            </g>
            <g transform="matrix(1,0,0,1,1143.4,566.432)">
                <path d="M0,-114.681C-1.41,-127.152 -6.039,-133.794 -11.714,-136.283C-11.707,-136.308 -11.699,-136.332 -11.691,-136.358C-14.924,-144.973 -20.567,-151.534 -27.714,-156.431C-41.833,-160.436 -58.043,-160.96 -72.887,-159.415C-104.001,-156.177 -152.158,-120.152 -131.206,-70.08C-124.07,-56.173 -118.198,-39.939 -117.451,-24.432C-119.077,-36.285 -126.2,-45.815 -133.22,-58.585C-141.484,-27.752 -138.612,3.785 -159.158,7.823C-158.516,8.7 -153.259,11.935 -144.896,16.109C-109.156,30.85 -52.68,46.279 -18.487,21.548C-49.732,-8.016 6.767,-54.839 0,-114.681" style="fill:rgb(104,53,41);"/>
            </g>
        </g>
    </g>
    <defs>
        <radialGradient id="_Radial1" cx="0" cy="0" r="1" gradientUnits="userSpaceOnUse" gradientTransform="matrix(1,0,0,-1,0,-0.287505)"><stop offset="0" style="stop-color:rgb(250,195,174);stop-opacity:1"/><stop offset="0.32" style="stop-color:rgb(250,195,174);stop-opacity:1"/><stop offset="0.81" style="stop-color:rgb(202,207,190);stop-opacity:1"/><stop offset="0.94" style="stop-color:rgb(97,232,224);stop-opacity:1"/><stop offset="1" style="stop-color:rgb(0,255,255);stop-opacity:1"/></radialGradient>
        <radialGradient id="_Radial2" cx="0" cy="0" r="1" gradientUnits="userSpaceOnUse" gradientTransform="matrix(1,0,0,-1,0,-0.223531)"><stop offset="0" style="stop-color:rgb(250,195,174);stop-opacity:1"/><stop offset="0.32" style="stop-color:rgb(250,195,174);stop-opacity:1"/><stop offset="0.81" style="stop-color:rgb(202,207,190);stop-opacity:1"/><stop offset="0.94" style="stop-color:rgb(97,232,224);stop-opacity:1"/><stop offset="1" style="stop-color:rgb(0,255,255);stop-opacity:1"/></radialGradient>
    </defs>
</svg>
